<?xml version="1.0" encoding="iso-8859-1"?>
<!-- Uploaded to: SVG Repo, www.svgrepo.com, Generator: SVG Repo Mixer Tools -->
<svg height="800px" width="800px" version="1.1" id="Layer_1" xmlns="http://www.w3.org/2000/svg" xmlns:xlink="http://www.w3.org/1999/xlink" 
	 viewBox="0 0 512 512" xml:space="preserve">
<path style="fill:#E7ECED;" d="M103.092,390.045c28,23.079,76.345,37.188,152.909,37.188s125.018-14.11,152.909-37.188l0.219,0.219
	c43.751,11.922,71.095,28.985,71.095,47.907c0,36.204-100.408,65.626-224.223,65.626S31.778,474.374,31.778,438.171
	c0-18.922,27.344-35.985,71.095-47.907L103.092,390.045z"/>
<path style="fill:#31C0D8;" d="M256.001,11.601c0,0,276.614,276.614,152.909,378.444c-27.891,23.079-76.345,37.188-152.909,37.188
	s-124.908-14.11-152.909-37.188C-20.613,288.215,256.001,11.601,256.001,11.601z"/>
<path style="fill:#00B3D6;" d="M318.299,81.21c-34.233-41.512-62.298-69.61-62.298-69.61S-20.613,288.215,103.092,390.045
	c28,23.079,76.345,37.188,152.909,37.188c23.317,0,43.993-1.325,62.309-3.798c-41.802-5.645-71.149-17.341-90.622-33.392
	C143.369,320.636,245.012,170.081,318.299,81.21z"/>
<path d="M97.875,396.375c31.447,25.919,84.649,39.062,158.126,39.062c73.6,0,126.806-13.146,158.122-39.057
	c21.604-17.785,33.276-41.605,34.688-70.799c2.563-52.966-28.285-123.02-91.689-208.217C310.407,54.591,262.283,6.28,261.802,5.8
	L256.001,0L250.2,5.8c-0.47,0.47-47.536,47.716-93.738,109.446l13.134,9.831c36.02-48.123,72.544-87.283,86.4-101.711
	c31.637,33.008,181.568,195.348,176.428,301.429c-1.199,24.719-10.595,43.991-28.743,58.93c-28.312,23.426-78,35.305-147.68,35.305
	c-69.569,0-119.26-11.882-147.695-35.319c-64.692-53.253-8.272-161.998,50.45-243.847l-13.331-9.564
	c-38.213,53.261-63.457,100.844-75.033,141.429C54.757,326.556,64.004,368.494,97.875,396.375z"/>
<path d="M441.163,392.266l-6.168,15.203c23.53,9.546,37.025,20.737,37.025,30.701c0,15.492-30.882,30.056-59.782,38.517
	c-41.64,12.191-97.127,18.906-156.237,18.906s-114.596-6.715-156.237-18.906c-28.901-8.461-59.782-23.025-59.782-38.517
	c0-9.958,13.481-21.144,36.987-30.688l-6.172-15.201c-21.542,8.747-47.222,23.808-47.222,45.889C23.574,486.125,143.325,512,256,512
	s232.426-25.875,232.426-73.829C488.427,416.079,462.725,401.014,441.163,392.266z"/>
<path d="M256.001,462.78c-78.453,0-128.518-21.054-128.518-35.548h-16.407c0,11.001,7.94,26.653,45.763,38.753
	c26.611,8.513,61.827,13.201,99.161,13.201c37.334,0,72.55-4.688,99.161-13.201c37.824-12.1,45.763-27.752,45.763-38.753h-16.407
	C384.519,441.726,334.454,462.78,256.001,462.78z"/>
<path style="fill:#FFFFFF;" d="M211.204,114.803c-4.857,5.153-118.804,127.128-104.911,209.978
	c3.998,23.842,17.942,42.174,41.447,54.484l7.614-14.533c-18.975-9.939-29.73-23.892-32.879-42.656
	c-5.116-30.476,10.435-73.806,44.968-125.304c26.679-39.785,55.411-70.409,55.699-70.713L211.204,114.803z"/>
<path d="M195.844,397.154v-16.407c-6.121,0-17.232-5.866-22.8-9.564l-9.095,13.655C165.841,386.1,182.798,397.154,195.844,397.154z"
	/>
</svg>